HIERARCHY
ROOT root
{
	OFFSET	0	13.1	24.9
	CHANNELS 6  Xposition Yposition Zposition Xrotation Yrotation Zrotation
	JOINT spine_1
	{
		OFFSET	0	9.99999	0
		CHANNELS 3  Xrotation Yrotation Zrotation
		JOINT spine_2
		{
			OFFSET	0	112	-10
			CHANNELS 3  Xrotation Yrotation Zrotation
			JOINT spine_3
			{
				OFFSET	0	206.5	19.3
				CHANNELS 3  Xrotation Yrotation Zrotation
				JOINT spine_4
				{
					OFFSET	0	110.4	14.6
					CHANNELS 3  Xrotation Yrotation Zrotation
					JOINT neck_1
					{
						OFFSET	0	71.8	-50.3
						CHANNELS 3  Xrotation Yrotation Zrotation
						JOINT neck_2
						{
							OFFSET	0	86.2	-25.8
							CHANNELS 3  Xrotation Yrotation Zrotation
							JOINT head_ee
							{
								OFFSET	0	179.8	-8.7
								CHANNELS 3  Xrotation Yrotation Zrotation
								End Site
								{
									OFFSET	1	0	0
								}
							}
						}
					}
					JOINT left_clavicle
					{
						OFFSET	-43.2	22.4	-70.8
						CHANNELS 3  Xrotation Yrotation Zrotation
						JOINT left_shoulder
						{
							OFFSET	-93.9	-5.79999	48.7
							CHANNELS 3  Xrotation Yrotation Zrotation
							JOINT left_elbow
							{
								OFFSET	-291.4	-30.8	15.2
								CHANNELS 3  Xrotation Yrotation Zrotation
								JOINT left_lowarm_twist
								{
									OFFSET	-110.7	-3.89999	13.6
									CHANNELS 3  Xrotation Yrotation Zrotation
									JOINT left_hand
									{
										OFFSET	-110.7	-3.89999	13.6
										CHANNELS 3  Xrotation Yrotation Zrotation
										JOINT left_ee
										{
											OFFSET	-80.8	-5.10001	12.1
											CHANNELS 3  Xrotation Yrotation Zrotation
											End Site
											{
												OFFSET	1	0	0
											}
										}
									}
								}
							}
						}
					}
					JOINT right_clavicle
					{
						OFFSET	43.2	22.4	-70.8
						CHANNELS 3  Xrotation Yrotation Zrotation
						JOINT right_shoulder
						{
							OFFSET	93.9	-5.79999	48.7
							CHANNELS 3  Xrotation Yrotation Zrotation
							JOINT right_elbow
							{
								OFFSET	291.4	-30.8	15.2
								CHANNELS 3  Xrotation Yrotation Zrotation
								JOINT right_lowarm_twist
								{
									OFFSET	110.7	-3.89999	13.6
									CHANNELS 3  Xrotation Yrotation Zrotation
									JOINT right_hand
									{
										OFFSET	110.7	-3.89999	13.6
										CHANNELS 3  Xrotation Yrotation Zrotation
										JOINT right_ee
										{
											OFFSET	80.8	-5.10001	12.1
											CHANNELS 3  Xrotation Yrotation Zrotation
											End Site
											{
												OFFSET	1	0	0
											}
										}
									}
								}
							}
						}
					}
				}
			}
		}
	}
	JOINT left_hip
	{
		OFFSET	-82.8	-127.5	0.300001
		CHANNELS 3  Xrotation Yrotation Zrotation
		JOINT left_knee
		{
			OFFSET	-28.2	-396.7	2.2
			CHANNELS 3  Xrotation Yrotation Zrotation
			JOINT left_ankle
			{
				OFFSET	-11.7	-411.3	35.4
				CHANNELS 3  Xrotation Yrotation Zrotation
				JOINT left_toes
				{
					OFFSET	0	-60	-88.6
					CHANNELS 3  Xrotation Yrotation Zrotation
					JOINT left_foot_ee
					{
						OFFSET	-22.5	-16.5	-42.2
						CHANNELS 3  Xrotation Yrotation Zrotation
						End Site
						{
							OFFSET	1	0	0
						}
					}
				}
			}
		}
	}
	JOINT right_hip
	{
		OFFSET	82.8	-127.5	0.300001
		CHANNELS 3  Xrotation Yrotation Zrotation
		JOINT right_knee
		{
			OFFSET	28.2	-396.7	2.2
			CHANNELS 3  Xrotation Yrotation Zrotation
			JOINT right_ankle
			{
				OFFSET	11.7	-411.3	35.4
				CHANNELS 3  Xrotation Yrotation Zrotation
				JOINT right_toes
				{
					OFFSET	0	-60	-88.6
					CHANNELS 3  Xrotation Yrotation Zrotation
					JOINT right_foot_ee
					{
						OFFSET	22.5	-16.5	-42.2
						CHANNELS 3  Xrotation Yrotation Zrotation
						End Site
						{
							OFFSET	1	0	0
						}
					}
				}
			}
		}
	}
}
MOTION
Frames: 15
Frame Time: 0.02
1325.26 671.802 -1411.24 -6.34537 55.7709 11.1295 1.74369 -0.33001 -2.15321 1.74625 -0.19236 -2.16984 1.75366 0.201753 -2.16898 1.74713 -0.143247 -2.17363 3.1223 5.29897 2.89789 3.17219 6.75005 3.60122 -0.0 0.0 -0.0 8.48853 -10.7709 16.5371 -2.72598 -12.1561 53.605 1.62539 -38.8371 0.573016 3.97219 0.12292 -0.492379 -1.51609 -24.6465 -20.6376 -0.0 0.0 -0.0 5.39355 -6.1381 -10.531 -30.951 34.9988 -58.3682 0.29089 8.19998 -0.0208512 -1.07427 0.0390876 -0.131618 0.672008 21.6386 4.74606 0.0 0.0 0.0 -8.88564 6.45161 0.0137871 -5.88717 0.197236 0.881584 40.7251 7.04908 -4.92349 30.6919 -0.0 -0.0 -0.0 0.0 -0.0 30.0596 12.8585 -13.1044 -0.209011 -0.00855012 -0.0309352 -9.00368 -5.49528 -1.34251 26.3904 -0.0 -0.0 0.0 0.0 0.0 
1302.05 678.915 -1423.25 -4.6695 54.7444 9.11826 1.71612 -0.284425 -2.09196 1.71854 -0.150762 -2.10581 1.7242 0.232235 -2.09839 1.71807 -0.102006 -2.10873 2.65137 4.01762 2.85226 2.68174 4.59684 3.46555 -0.0 0.0 -0.0 8.58545 -10.8135 16.7447 -5.54985 -11.3293 55.0422 1.40069 -34.7532 0.438341 4.91126 0.146966 -0.609925 -1.498 -24.4921 -20.4544 -0.0 0.0 -0.0 5.68885 -5.38532 -11.0741 -30.334 35.156 -57.5313 0.289354 8.15726 -0.0206328 -0.601478 0.0215808 -0.0737815 0.628437 19.9303 4.29288 0.0 0.0 0.0 -7.19784 6.69686 -0.701011 -11.1715 0.29638 1.68612 40.7662 7.0987 -4.92717 32.6703 -0.0 -0.0 -0.0 0.0 -0.0 28.2763 13.0825 -12.8469 -1.79821 -0.0698529 -0.267111 -10.16 -8.5261 -1.51502 28.5723 -0.0 -0.0 0.0 0.0 0.0 
1282.78 682.218 -1430.3 -4.9343 54.8565 8.81841 1.70963 -0.291861 -2.07227 1.71201 -0.159435 -2.08663 1.71794 0.220458 -2.08107 1.71191 -0.110901 -2.08977 1.65689 3.06904 2.80468 1.67932 3.05145 3.33994 -0.0 0.0 -0.0 9.00855 -10.6943 17.6624 -8.07288 -10.6248 57.3299 1.23468 -31.4497 0.347643 5.05894 0.150572 -0.628446 -1.52788 -24.3111 -20.5911 -0.0 0.0 -0.0 6.21106 -4.51291 -12.0533 -29.2349 34.9058 -57.372 0.295626 8.33162 -0.0215321 0.392705 -0.0136713 0.0482907 0.571276 18.4426 4.0289 0.0 0.0 0.0 -6.10146 7.86912 -0.926124 -15.079 0.321786 2.285 40.766 5.16358 -4.92351 34.4271 -0.0 -0.0 -0.0 0.0 -0.0 27.0938 13.3019 -12.5454 -2.34252 -0.0893383 -0.348373 -8.83708 -10.7744 -1.31621 30.6583 -0.0 -0.0 0.0 0.0 0.0 
1263.76 686.287 -1436.7 -3.8313 55.4314 7.76075 1.79296 -0.403118 -2.42729 1.7962 -0.247893 -2.44801 1.80693 0.194956 -2.45279 1.79859 -0.194743 -2.45281 1.38244 2.29297 2.29639 1.39671 2.12699 2.71509 -0.0 0.0 -0.0 9.29543 -10.5535 18.288 -10.3339 -10.0297 59.7869 1.07683 -28.076 0.269249 5.33697 0.157232 -0.663338 -1.52956 -24.1889 -20.556 -0.0 0.0 -0.0 6.58602 -3.90933 -12.7683 -28.4493 34.7455 -57.37 0.3004 8.46423 -0.0222293 1.15185 -0.039158 0.141898 0.560215 17.4808 3.68696 0.0 0.0 0.0 -5.73714 8.74005 -1.15067 -17.6953 0.315953 2.68635 39.7569 4.11617 -4.83727 35.6528 -0.0 -0.0 -0.0 0.0 -0.0 26.373 13.4223 -11.9877 -2.70932 -0.102033 -0.403235 -7.07521 -12.3706 -1.05244 32.2048 -0.0 -0.0 0.0 0.0 0.0 
1235.3 687.012 -1450.7 -3.1523 55.7358 7.24336 1.7664 -0.432936 -2.36551 1.76947 -0.281579 -2.38825 1.78139 0.152137 -2.39997 1.77342 -0.228691 -2.39389 -1.23272 1.57976 1.91702 -1.22305 1.29885 2.22505 -0.0 0.0 -0.0 9.50679 -10.6734 18.7452 -11.9699 -10.0066 61.8489 0.983616 -25.9774 0.226886 5.52805 0.16171 -0.687336 -1.38266 -22.625 -18.9384 -0.0 0.0 -0.0 6.37881 -3.12536 -12.3764 -28.4124 34.3923 -55.9182 0.304709 8.58384 -0.022868 2.14654 -0.0706697 0.26504 0.798434 18.3586 2.47901 0.0 0.0 0.0 -5.41849 8.72863 -1.3612 -19.5854 0.300341 2.97592 39.0142 2.91421 -4.77486 36.3645 -0.0 -0.0 -0.0 0.0 -0.0 24.282 13.5172 -12.4694 -4.35849 -0.154754 -0.650834 -0.545789 -13.364 -0.0802708 34.9895 -0.0 -0.0 0.0 0.0 0.0 
1223.21 694.001 -1464.14 -1.90983 56.809 6.30038 1.87581 -0.375165 -2.32889 1.87879 -0.226253 -2.34803 1.88812 0.194997 -2.35083 1.88045 -0.178615 -2.35213 -3.32349 1.08549 2.00774 -3.31258 0.419533 2.24343 -0.0 0.0 -0.0 9.19857 -11.6731 18.0484 -13.6328 -10.0652 63.2002 0.884215 -23.6538 0.185159 5.76637 0.167183 -0.717288 -1.30483 -20.8724 -17.7083 -0.0 0.0 -0.0 6.71578 -2.13292 -13.0294 -27.4502 34.4607 -54.5972 0.325991 9.1735 -0.0261529 3.31735 -0.105013 0.410648 0.967624 18.99 1.63058 0.0 0.0 0.0 -5.06314 6.04489 -2.00113 -20.8457 0.284628 3.16865 38.5374 2.95369 -4.73236 36.8569 -0.0 -0.0 -0.0 0.0 -0.0 22.6391 13.5886 -12.8969 -5.51456 -0.187449 -0.825238 4.04759 -15.0238 0.590292 36.9482 -0.0 -0.0 0.0 0.0 0.0 
1209.79 693.103 -1478.01 -1.00181 56.33 4.85456 1.93778 -0.328203 -2.272 1.94064 -0.183003 -2.28827 1.94792 0.224569 -2.28457 1.94066 -0.138957 -2.29137 -4.77976 0.984332 2.11326 -4.76743 0.211645 2.3252 -0.0 0.0 -0.0 9.27752 -12.2798 18.2021 -14.8291 -10.1253 65.6635 0.81837 -22.0673 0.159577 6.06952 0.173965 -0.755419 -1.23842 -19.5501 -16.7178 -0.0 0.0 -0.0 6.98798 -1.73696 -13.5619 -26.774 34.5198 -54.7028 0.340894 9.58525 -0.0285816 4.04339 -0.124811 0.501277 1.08423 19.4322 1.05197 0.0 0.0 0.0 -4.79378 3.77305 -2.50689 -22.0078 0.266383 3.34604 38.496 2.94878 -4.72867 37.3197 -0.0 -0.0 -0.0 0.0 -0.0 21.4839 13.6412 -13.233 -6.32121 -0.208173 -0.947294 7.27924 -16.1679 1.05457 38.3704 -0.0 -0.0 0.0 0.0 0.0 
1181.93 697.6 -1494.63 -1.29864 55.8767 6.55602 2.0208 -0.106892 -2.39704 2.02399 0.0458098 -2.39899 2.02183 0.466524 -2.35366 2.01411 0.0890641 -2.39777 -2.82592 0.988225 2.18622 -2.81274 0.0838115 2.41931 -0.0 0.0 -0.0 8.81005 -11.602 17.206 -16.6816 -10.2919 67.3644 0.665337 -18.2417 0.106819 5.32434 0.156933 -0.661751 -0.851626 -19.1207 -13.8895 -0.0 0.0 -0.0 7.22251 -1.4914 -14.0234 -26.6163 33.5944 -55.9831 0.352365 9.9015 -0.0305229 5.59579 -0.163278 0.695847 1.39538 20.6857 -0.445983 0.0 0.0 0.0 -4.07044 0.405627 -2.56239 -25.1508 0.199056 3.82359 39.3758 2.66944 -4.80746 38.6185 -0.0 -0.0 -0.0 0.0 -0.0 19.1679 13.3687 -14.9154 -6.94049 -0.222916 -1.04119 11.1707 -16.8887 1.60131 40.1727 -0.0 -0.0 0.0 0.0 0.0 
1160.45 697.395 -1515.0 -1.31566 56.0238 7.60861 2.29293 0.0935867 -2.48603 2.29633 0.251541 -2.47505 2.28486 0.671613 -2.39547 2.27696 0.284985 -2.47142 -1.45895 0.828137 2.3298 -1.44338 -0.374187 2.56782 -0.0 0.0 -0.0 8.32958 -10.2367 16.2113 -20.1691 -10.1336 70.2961 0.523228 -14.531 0.0667075 4.65494 0.140594 -0.577803 -0.499972 -18.7735 -11.3564 -0.0 0.0 -0.0 7.53008 -0.979661 -14.6357 -26.0543 33.168 -55.9554 0.369882 10.3833 -0.0336076 6.88592 -0.191225 0.858278 1.65851 21.6363 -1.74634 0.0 0.0 0.0 -3.58085 -4.01715 -3.64943 -29.1241 0.0766189 4.42095 39.8149 2.7096 -4.84555 39.5149 -0.0 -0.0 -0.0 0.0 -0.0 16.5973 13.4347 -15.558 -7.67739 -0.239134 -1.1531 12.4934 -18.0879 1.78913 40.1468 -0.0 -0.0 0.0 0.0 0.0 
1144.92 697.892 -1525.55 0.924236 57.5866 6.08305 2.20755 -0.09426 -2.73123 2.21169 0.0796605 -2.7317 2.20736 0.549746 -2.67703 2.19738 0.120224 -2.73021 -2.29321 0.0304488 2.62645 -2.26936 -2.0177 2.75772 -0.0 0.0 -0.0 7.57936 -8.50314 14.6643 -22.9856 -10.8545 72.5015 0.475493 -13.2543 0.0552452 4.1901 0.128672 -0.519621 0.0591237 -18.399 -7.43361 -0.0 0.0 -0.0 7.98635 -0.0163579 -15.5592 -24.2181 33.3711 -56.4387 0.422964 11.8339 -0.0438357 8.07661 -0.213765 1.0087 1.78882 21.0462 -2.87641 0.0 0.0 0.0 -3.08668 -9.09148 -3.96669 -33.4998 -0.105817 5.06749 39.1293 1.90927 -4.78888 39.9064 -0.0 -0.0 -0.0 0.0 -0.0 14.7872 13.5309 -16.0589 -8.18202 -0.249409 -1.22986 11.6671 -19.0558 1.68099 39.4224 -0.0 -0.0 0.0 0.0 0.0 
1129.81 702.344 -1536.41 2.89659 59.3291 4.097 2.20226 -0.156936 -2.5324 2.20582 0.00447201 -2.53725 2.20521 0.442112 -2.49846 2.1965 0.0421105 -2.5369 -5.26274 -1.01198 2.81855 -5.23373 -3.9709 2.68736 -0.0 0.0 -0.0 7.15442 -8.72749 13.7613 -24.1644 -11.6364 72.3046 0.517817 -14.387 0.0653564 4.82926 0.144943 -0.599646 0.780777 -15.5548 -1.37612 -0.0 0.0 -0.0 8.19589 1.39465 -16.0031 -22.8284 33.578 -55.9596 0.540901 15.0 -0.0712115 10.529 -0.250312 1.31981 2.03282 20.5684 -4.71059 0.0 0.0 0.0 0.701592 -13.9319 -2.50599 -39.9076 -0.460899 5.98535 35.303 -1.38347 -4.46001 40.1771 -0.0 -0.0 -0.0 0.0 -0.0 12.9692 13.8303 -16.1891 -8.77077 -0.260542 -1.31952 14.5995 -20.2395 2.09087 37.2434 -0.0 -0.0 0.0 0.0 0.0 
1122.96 705.736 -1540.05 2.67196 60.5522 3.86505 2.22152 -0.185361 -2.32555 2.22452 -0.0370452 -2.33263 2.22569 0.365022 -2.30421 2.21828 -0.00336298 -2.33292 -7.67714 -1.76545 2.90976 -7.65167 -5.36168 2.51835 -0.0 0.0 -0.0 6.83283 -8.46057 13.095 -24.9647 -12.1825 72.1371 0.55664 -15.416 0.0753404 5.27667 0.155802 -0.655768 1.27565 -13.509 2.8401 -0.0 0.0 -0.0 8.2464 2.45946 -16.1176 -22.0448 33.7396 -54.7463 0.626415 17.2396 -0.094959 12.2461 -0.267961 1.53841 2.21182 20.3319 -6.00807 0.0 0.0 0.0 3.06388 -18.2656 -1.77564 -44.4252 -0.772024 6.60636 32.3314 -4.05805 -4.19466 40.1508 -0.0 -0.0 -0.0 0.0 -0.0 11.6805 14.0707 -16.1453 -9.20357 -0.268137 -1.3855 16.8467 -21.2276 2.40196 35.7184 -0.0 -0.0 0.0 0.0 0.0 
1110.39 696.694 -1545.83 3.19376 62.6401 3.63662 2.2042 -0.163034 -2.26026 2.20704 -0.0189153 -2.26605 2.20747 0.372134 -2.23538 2.20049 0.0145216 -2.26608 -9.43415 -2.29741 2.94695 -9.4169 -6.33252 2.33686 -0.0 0.0 -0.0 6.71988 -8.0314 12.8742 -25.5323 -12.5679 72.056 0.584863 -16.1577 0.0830187 5.57253 0.162741 -0.692924 1.6169 -12.0424 5.78723 -0.0 0.0 -0.0 8.47563 3.61886 -16.5984 -20.7483 34.092 -54.1514 0.693958 18.9713 -0.115952 13.4612 -0.276488 1.69338 2.33603 20.1597 -6.91492 0.0 0.0 0.0 5.78048 -21.2342 -0.771814 -47.3056 -0.995689 6.98899 30.1353 -6.07829 -3.99214 40.081 -0.0 -0.0 -0.0 0.0 -0.0 10.7655 14.2179 -16.0821 -9.50598 -0.273149 -1.43163 18.3422 -21.9291 2.60782 34.605 -0.0 -0.0 0.0 0.0 0.0 
1105.15 700.431 -1554.66 3.30556 65.0584 3.86845 2.21375 -0.138604 -2.18933 2.21642 0.000955146 -2.19371 2.21607 0.378909 -2.16075 2.20955 0.0329894 -2.19346 -10.6452 -2.90928 2.30933 -10.6472 -7.02648 1.48741 -0.0 0.0 -0.0 6.50289 -7.73244 12.4324 -26.5504 -12.7415 71.9706 0.605732 -16.7026 0.0889216 5.77689 0.167422 -0.71861 1.88809 -11.1717 8.011 -0.0 0.0 -0.0 8.47419 4.99832 -16.5985 -20.2115 34.0931 -52.3126 0.74055 20.1454 -0.13155 14.3657 -0.2807 1.80883 2.39708 20.0793 -7.35946 0.0 0.0 0.0 9.53157 -23.7412 -0.182278 -48.4589 -1.09062 7.13901 27.7761 -7.60992 -3.75644 39.7686 -0.0 -0.0 -0.0 0.0 -0.0 10.0434 14.2881 -16.3055 -9.73233 -0.27674 -1.46618 19.7224 -22.3899 2.79421 34.1004 -0.0 -0.0 0.0 0.0 0.0 
1090.05 703.443 -1556.73 4.7124 68.2534 2.96297 2.14425 -0.117948 -2.23497 2.14703 0.0244716 -2.23794 2.14578 0.41242 -2.19977 2.13903 0.0599231 -2.23727 -11.4802 -3.33129 1.81489 -11.4963 -7.48829 0.841755 -0.0 0.0 -0.0 6.21982 -7.13315 11.8673 -27.8107 -12.8071 72.0928 0.617485 -17.0082 0.0923295 5.91596 0.170555 -0.736098 2.08419 -10.5799 9.60976 -0.0 0.0 -0.0 8.47361 5.84945 -16.5943 -20.0055 33.943 -50.9167 0.752018 20.4317 -0.135526 14.9977 -0.282562 1.88953 2.43219 19.9567 -7.65201 0.0 0.0 0.0 13.0522 -25.4368 0.825107 -48.9229 -1.12966 7.19883 26.0732 -8.73916 -3.58014 39.5434 -0.0 -0.0 -0.0 0.0 -0.0 9.33069 14.3614 -16.5225 -9.99802 -0.280782 -1.50674 20.6899 -22.7516 2.92445 33.7449 -0.0 -0.0 0.0 0.0 0.0 
